<svg id="Слой_1" data-name="Слой 1" xmlns="http://www.w3.org/2000/svg" viewBox="0 0 1363.04 1289.02"><defs><style>.cls-1{fill:#d5ecfc;}.cls-2{fill:#fff;}</style></defs><path class="cls-1" d="M388.85,957.68l111.6-263.31a9.76,9.76,0,0,1,16.23-2.73l161.73,179.2A9.75,9.75,0,0,1,674,886.7L400.7,970.81A9.75,9.75,0,0,1,388.85,957.68Z" transform="translate(-2.2 -53.08)"/><path class="cls-2" d="M401.8,965.25l21.94-51.77L469,806.61l37.85-89.3c2.13-5,4.9-10.13,6.51-15.35.68-2.24.82-.89.09-.55-.49.23-1.22,1.14-1.73,1.48-2.16,1.44-1.73.38-.5.24a18.32,18.32,0,0,1-3.55,0l-.72-.36c-1.06-.56-1-.49.28.22.05,0-1.34-.91-1.17-.72.37.42.77.81,1.12,1.24,2.18,2.64,4.61,5.1,6.89,7.64l65.48,72.55,72.28,80.08c5.07,5.63,9.9,12.3,15.61,17.3,0,0,.25.34.31.34-.47,0-1.06-1.3-1.28-1.75-.56-1.16-.25-2.22-.42-3.35.21-1.06.21-1.18,0-.35-.31,1.07-.17.72.42-1,.53-.75,2.56-3.17,3.47-2.69-.08,0-.47.15-.56.17-2.32.53-4.61,1.42-6.89,2.12l-82.23,25.3L467.15,934.67c-22.83,7-45.88,13.56-68.54,21.09-.37.13-1.48.24-1.74.54s.76-.12,1.08,0c1.89.51,3.42.78,4.47,2.69.78,1.44,0,5.41.89,2.72,2.56-7.42-2.92-16.73-10.48-18.45-8.35-1.9-15.71,2.53-18.45,10.48-6.58,19.07,11.9,36.38,30.52,31.51,2-.53,4-1.23,6-1.84l32.46-10,110.89-34.12,101.92-31.37c7.09-2.18,14.24-4.21,21.29-6.55,13.24-4.39,21.62-17.55,17.31-31.44-1.56-5-4.9-8.73-8.29-12.49L627,791.56l-78-86.44L528.7,682.6c-12-13.31-34.34-11.6-41.84,5.7-9.9,22.86-19.44,45.88-29.17,68.82l-47.89,113-32.24,76.06-1.67,3.92c-3.16,7.45-2.23,16.07,5.38,20.53C387.57,974.32,398.62,972.75,401.8,965.25Z" transform="translate(-2.2 -53.08)"/><line class="cls-1" x1="805.07" y1="168.3" x2="91.89" y2="168.36"/><path class="cls-2" d="M807.27,191.38H123.11c-9.27,0-18.55-.14-27.82,0h-1.2c-15.69,0-30.73,13.8-30,30s13.18,30,30,30H778.24c9.27,0,18.56.13,27.83,0h1.2c15.69,0,30.72-13.8,30-30s-13.19-30-30-30Z" transform="translate(-2.2 -53.08)"/><path class="cls-2" d="M62.2,289.6a92.28,92.28,0,0,1,.5-10.9l-1.07,8A61.08,61.08,0,0,1,66,271l-3,7.16a72.08,72.08,0,0,1,5.83-10.62,11.91,11.91,0,0,1,2-2.8c-.92.67-4.07,4.9-1.32,1.76,1.91-2.16,3.79-4.32,5.82-6.37,1.61-1.63,3.26-3.2,5-4.7,4.87-4.25-5.11,3.49-.23.11a51.1,51.1,0,0,1,9.1-5l-7.17,3a44.44,44.44,0,0,1,9.62-2.6l-8,1.07a80.49,80.49,0,0,1,10.53-.55c15.69,0,30.73-13.79,30-30s-13.18-30-30-30c-9.43,0-19.28.75-28.12,4.23a96.38,96.38,0,0,0-37.08,26.2c-10.48,11.8-19,25.11-23.38,40.39C3,271.08,2.19,280.45,2.2,289.6c0,15.69,13.78,30.73,30,30s30-13.18,30-30Z" transform="translate(-2.2 -53.08)"/><path class="cls-2" d="M2.2,289.6v954.28c0,15.69,13.8,30.72,30,30s30-13.18,30-30V289.6c0-15.69-13.8-30.72-30-30s-30,13.18-30,30Z" transform="translate(-2.2 -53.08)"/><path class="cls-2" d="M1084.3,1282H112c-8,0-16.12.52-24-.47l8,1.07a62.22,62.22,0,0,1-6.9-1.33c-1.56-.39-3.1-.84-4.61-1.35-.82-.28-1.64-.58-2.44-.89l4.65,2c-2.77-.14-6.86-3.47-9.13-5-.9-.6-1.79-1.22-2.66-1.86q5.76,4.55,2.11,1.49c-1.5-1.48-3.08-2.86-4.53-4.41-.63-.66-1.24-1.34-1.84-2q-3-3.68,1.41,1.93c-.5-1.61-2.36-3.43-3.26-4.91s-1.87-3.25-2.71-4.93c-.46-.93-.89-1.86-1.31-2.8q2.86,7,1.6,3.73a91.84,91.84,0,0,1-4.48-17.49l1.08,8a75.5,75.5,0,0,1-.68-8.89c-.21-15.69-13.65-30.74-30-30-16.07.72-30.23,13.18-30,30,.58,43.19,28.93,85.88,72.46,95.67,13.31,3,26.58,2.49,40.09,2.49h923.37c14.75,0,29.5.13,44.25,0h1.93c15.7,0,30.73-13.8,30-30s-13.18-30-30-30Z" transform="translate(-2.2 -53.08)"/><path class="cls-2" d="M1122.47,1243.88c-.11,2.25-.31,4.48-.6,6.72l1.07-8a78.09,78.09,0,0,1-4.77,17.9l3-7.17a73,73,0,0,1-6.83,12.71c-.56.82-3.22,4.38-.34.61s.39-.61-.28.15a67.93,67.93,0,0,1-4.83,4.92c-.72.67-1.48,1.3-2.21,2-3,2.68,2.14-1.87,2.69-2-1.46.41-3.24,2.28-4.57,3.1a77,77,0,0,1-10.2,5.29l7.16-3a83.16,83.16,0,0,1-20.37,5.58l8-1.07c-1.69.22-3.39.39-5.1.49-15.63.92-30.75,13.14-30,30,.7,15.47,13.23,31,30,30,19.72-1.16,40-7.14,56-19,13.75-10.2,25.52-22.81,32.45-38.68a111.47,111.47,0,0,0,9.77-40.49c.73-15.7-14.32-30.71-30-30-16.88.75-29.22,13.18-30,30Z" transform="translate(-2.2 -53.08)"/><line class="cls-1" x1="1151.11" y1="598.99" x2="1150.28" y2="1190.8"/><path class="cls-2" d="M1123.31,652.07l-.08,59.26-.2,141.22-.24,170.66-.21,147.93c0,23.91-.48,47.85-.1,71.76v1c0,15.69,13.81,30.72,30,30s30-13.18,30-30l.08-59.27.2-141.21.24-170.66.21-147.93c0-23.91.48-47.86.1-71.77,0-.32,0-.65,0-1,0-15.7-13.81-30.73-30-30s-30,13.18-30,30Z" transform="translate(-2.2 -53.08)"/><path class="cls-1" d="M501.61,709,658.49,883.33c5.07,5.64,15.46,4.44,23.2-2.68L1199.86,404.5c5.5-5.05,7-12.39,3.44-16.39L1040.57,207.3c-3.31-3.68-10.1-2.9-15.15,1.75l-519,476.88C498.7,693,496.54,703.38,501.61,709Z" transform="translate(-2.2 -53.08)"/><path class="cls-2" d="M491,719.62l56.64,62.93,85.56,95.07c6.2,6.89,13,17.12,21.56,21.32,15.22,7.45,29.86-.63,41-10.91l42.31-38.87,78.18-71.84,99.13-91.09,104.06-95.62,94-86.41L1182.25,441c9.37-8.61,19.07-17,28.15-25.87,10.75-10.53,13.25-26.17,3.21-38-2-2.42-4.25-4.73-6.37-7.09l-32.19-35.77L1084.93,234.2l-29.43-32.71c-1.44-1.59-2.81-3.28-4.32-4.8-10.74-10.77-26.5-7-36.77,2.12-10.63,9.45-21,19.26-31.43,28.88l-70.89,65.14-95.48,87.74L712.82,475.94l-98.27,90.3L538.1,636.49,498.34,673c-13.49,12.39-19.89,31-7.34,46.59,5.08,6.32,15.92,5.29,21.21,0,6.25-6.25,5.09-14.88,0-21.21a10.45,10.45,0,0,1,1.67,2.73c-1.41-3.06,0,2,0,0v-.61c-.29,1.72-.3,2,0,.88.12-.07,1.09-3.1.35-1.35-.82,1.93,1.33-2.06,1.24-1.94-.44.63-1.58,1.53.5-.46l1.14-1.11c.19-.19.39-.36.58-.54l3.61-3.31,16.27-14.95,62-57,88.84-81.63,101.42-93.19,99.89-91.79,83.44-76.67,52.29-48.05c3.34-3.08,6.59-6.34,10.07-9.26.19-.16.35-.35.54-.5-1,.74-.77.06.69-.25-.92.19-1.35.41-2.42.59,1.67-.27,5.36,1.1-3-1.13-2.16-.58-1.46-1.41-1-.71,1.44,2.42,4.14,4.6,6,6.68L1112,309.05l75,83.33c1.78,2,3.5,4.52,5.57,6.19a9.61,9.61,0,0,1-2.31-5.15c-.39-3.54.78-.62-.06-.22l.44-1c-.85,1.34-1,1.65-.5.93.89-.8-.42.4-.88.81l-.6.54c-3.38,3.19-6.85,6.3-10.27,9.44l-52.66,48.39L1042,529.22l-100,91.93L840.58,714.3l-88.53,81.35L690.69,852,674.94,866.5c-1.13,1-2.24,2.1-3.39,3.11-.16.14-.31.3-.47.43,1.77-1.51-3.41,2-1.69,1.22,1.43-.68-1.33.37-1.6.52-1.39.75,1.29.64,0,.08-2.12-.91,2.9,1.9-.34,0,.35.2,2.81,1.08,2.5,1.65a12.63,12.63,0,0,0-.9-.9c-18.61-21.58-38.17-42.41-57.23-63.59l-84.29-93.66-15.31-17c-5.42-6-15.69-5.52-21.21,0C485,704.39,485.56,713.58,491,719.62Z" transform="translate(-2.2 -53.08)"/><path class="cls-1" d="M1230.55,361.67l-166.49-185c-1.84-2-1.12-5.72,1.6-8.22l96.17-88.35c15.22-14,35.88-16,46.15-4.64l136.78,152c10.28,11.41,6.27,32-8.94,46l-94.94,87.21C1237.48,363.76,1232.85,364.22,1230.55,361.67Z" transform="translate(-2.2 -53.08)"/><path class="cls-2" d="M1241.16,351.06l-35.57-39.53-71.1-79L1080,172a58.29,58.29,0,0,0-4.76-5.29c-.15-.13-.26-.37-.44-.49,0,0,0-.07-.08-.09h0q-1.77-2,1.54,5c-.18-.58,3,7.46,0,8,.42-.07,1.21-1.11,1.5-1.38l26.54-24.37,66.63-61.21c.5-.46,1-.93,1.5-1.38a30.19,30.19,0,0,1,13-7c.89-.22,1.79-.37,2.68-.58-.37.09-2.28,0-.67.12,1.46.11,3-.1,4.51-.06,2.75.08-1.6-.72.92.22a23,23,0,0,0,2.31.7c-1.22-.31-1.72-1-.33-.06.64.43,1.36.84,2,1.25-.36-.22-1.59-1.67-.73-.47a13.07,13.07,0,0,0,1.28,1.3l.33.36c5.18,5.55,10.16,11.29,15.23,16.93l67.75,75.28,51.79,57.55c.5.56,1,1.14,1.51,1.68s.65,1-.72-1c.64,1,1.15,2,1.79,3-1.72-2.59,0,.56.37,1.93.33,1.18-.27,2.1,0-.43-.05.61.1,1.23.06,1.84-.06,1-.7,4.84,0,1.68-.3,1.28-.53,2.57-.9,3.85-.25.87-.55,1.71-.84,2.57.49-1.46.42-.8-.12.26a63.46,63.46,0,0,1-4.33,7.12c1-1.19-1.12,1.18-1.32,1.39-.53.58-1.07,1.14-1.63,1.68-.4.4-.81.77-1.22,1.15-6.8,6.4-13.75,12.64-20.62,18.95l-70.25,64.53c-1,.95-2,1.94-3.11,2.86-.18.16-.67.47-.77.7,1.38-3.21,9.55.09,10.77,1.15-6.1-5.33-15.21-6-21.22,0-5.43,5.44-6.12,15.86,0,21.21,10.61,9.26,23.25,6.46,33-2.33,3.53-3.2,7-6.44,10.51-9.66l38.48-35.34,36.38-33.42c12-11.06,23.77-22.91,26.36-40,2-13.05-.76-24.86-9.47-34.94-1.62-1.89-3.33-3.7-5-5.55l-25.42-28.24-73.83-82-26.27-29.2c-1.88-2.08-3.73-4.2-5.64-6.26-7.36-7.92-17.6-12-28.35-12.23-19.08-.41-33.49,10.94-46.69,23.06l-35.69,32.78L1069,145c-10.35,9.51-28,21.88-18.51,38.24,3.24,5.58,8.78,10.45,13,15.2l26.9,29.89,74.48,82.75,52.28,58.1,2.75,3.06c5.43,6,15.7,5.52,21.22,0C1247.15,366.28,1246.59,357.1,1241.16,351.06Z" transform="translate(-2.2 -53.08)"/></svg>